<?xml version="1.0" encoding="UTF-8"?>
<!DOCTYPE svg>
<svg xmlns="http://www.w3.org/2000/svg" fill="#fff" fill-rule="evenodd" stroke="#000"
    stroke-linecap="round" stroke-linejoin="round" width="36" height="58">
    <rect id="backgroundrect" width="100%" height="100%" x="0" y="0" fill="none" stroke="none" />
    <g class="currentLayer" style="">
        <title>Layer 1</title>
        <g fill="none" stroke="#464646" stroke-linejoin="miter" id="svg_1" class="">
            <rect height="52" width="36" x="0" y="5.5" rx="5" id="svg_3" />
        </g>
        <g stroke="none" id="svg_4" class="">
            <path
                d="M10.835,4.382 V2.524 c-0.14300000000000002,-1.239 -1.138,-2.17 -2.318,-2.17 s-2.175,0.931 -2.318,2.17 v1.858 H5 V8.5 h7 V4.382 zm-1.145,0 h-2.375 V2.524 c0.003000000000000001,-0.32200000000000006 0.134,-0.6290000000000001 0.36100000000000004,-0.8440000000000001 s0.529,-0.32100000000000006 0.8320000000000001,-0.29000000000000004 c0.6240000000000001,-0.029000000000000005 1.155,0.47600000000000003 1.193,1.135 z"
                fill="#ef6c00" id="svg_5" />
            <path
                d="M10.835,4.028 V2.17 C10.692,0.931 9.698,0 8.517,0 s-2.175,0.931 -2.318,2.17 v1.858 H5 v4.118 h7 V4.028 zm-1.145,0 h-2.375 V2.17 c0.003000000000000001,-0.32200000000000006 0.134,-0.6290000000000001 0.36100000000000004,-0.8440000000000001 s0.529,-0.32100000000000006 0.8320000000000001,-0.29000000000000004 c0.6240000000000001,-0.029000000000000005 1.155,0.47600000000000003 1.193,1.135 z"
                fill="#ff9800" id="svg_6" />
        </g>
    </g>
</svg>