<?xml version="1.0" encoding="UTF-8"?>
<!DOCTYPE svg>
<svg xmlns="http://www.w3.org/2000/svg" fill="#fff" fill-rule="evenodd" stroke="#000"
    stroke-linecap="round" stroke-linejoin="round" width="36" height="56">
    <rect id="backgroundrect" width="100%" height="100%" x="0" y="0" fill="none" stroke="none" />
    <g class="currentLayer" style="">
        <title>Layer 1</title>
        <g fill="none" stroke="#464646" stroke-linejoin="miter" id="svg_1" class="">
            <rect height="52" width="36" x="0" y="3.500004768371582" rx="5" id="svg_3" />
        </g>
        <g stroke="none" id="svg_4" class="">
            <path
                d="M14,4.7220047683715825 v0.48400000000000004 c0,0.8820000000000001 -0.905,1.7930000000000001 -2.019,1.7930000000000001 h-5.96 c-1.114,0 -2.019,-0.911 -2.019,-1.7930000000000001 v-0.48400000000000004 z"
                fill="#9d5125" id="svg_5" />
            <path
                d="M7.850000000000001,0.00000476837158203125 c1.004,-0.0020000000000000005 1.915,0.6260000000000001 2.33,1.604 c0.39000000000000007,-0.28500000000000003 0.8930000000000001,-0.32100000000000006 1.314,-0.09400000000000003 s0.6950000000000002,0.6800000000000002 0.7140000000000001,1.185 c1.008,0.09000000000000002 1.792,1.13 1.792,1.956 v0.17900000000000002 c0,0.8880000000000001 -0.905,1.7890000000000001 -2.024,1.7890000000000001 h-5.956 c-1.115,0 -2.021,-0.9 -2.021,-1.7890000000000001 v-0.17800000000000002 c0,-0.6850000000000002 0.538,-1.6260000000000001 1.294,-1.86 v-0.07700000000000001 c0.003000000000000001,-0.7230000000000001 0.273,-1.4140000000000001 0.7530000000000001,-1.923 s1.1280000000000001,-0.793 1.803,-0.79 z"
                fill="#f58535" id="svg_6" />
            <path
                d="M6.4239999999999995,3.175004768371582 h0.3960000000000001 l0.3970000000000001,2.003 h0 l0.42600000000000005,-1.998 h0.3960000000000001 l-0.5890000000000001,2.498 h-0.47500000000000003 zm1.854,0 h0.7410000000000001 c0.44800000000000006,0 0.6460000000000001,0.30400000000000005 0.6460000000000001,0.7290000000000001 s-0.24600000000000002,0.7390000000000001 -0.6840000000000002,0.7390000000000001 h-0.32900000000000007 v1.034 h-0.37300000000000005 zm0.37300000000000005,1.1680000000000001 h0.265 c0.2,0 0.37300000000000005,-0.11500000000000002 0.37300000000000005,-0.43100000000000005 c0,-0.27 -0.101,-0.43400000000000005 -0.4,-0.43400000000000005 h-0.23800000000000002 zm2.762,0.43700000000000006 v0.05300000000000001 c0,0.456 -0.17,0.8940000000000001 -0.7210000000000001,0.8940000000000001 c-0.5900000000000001,0 -0.773,-0.40700000000000003 -0.773,-1.3 s0.18300000000000002,-1.3 0.776,-1.3 c0.6640000000000001,0 0.7100000000000001,0.525 0.7100000000000001,0.785 v0.05000000000000001 h-0.37200000000000005 V3.920004768371582 c0,-0.231 -0.06500000000000002,-0.49800000000000005 -0.3340000000000001,-0.48700000000000004 s-0.4,0.18200000000000002 -0.4,0.989 s0.12100000000000001,1.004 0.404,1.004 c0.31100000000000005,0 0.3480000000000001,-0.37200000000000005 0.3480000000000001,-0.6070000000000001 v-0.04200000000000001 z"
                id="svg_7" />
        </g>
    </g>
</svg>